<svg width="12" height="12" viewBox="0 0 12 12" fill="none" xmlns="http://www.w3.org/2000/svg">
<path fill-rule="evenodd" clip-rule="evenodd" d="M6 0C2.685 0 0 2.75291 0 6.15176C0 8.87392 1.7175 11.1731 4.1025 11.9882C4.4025 12.0421 4.515 11.8575 4.515 11.696C4.515 11.5499 4.5075 11.0655 4.5075 10.5503C3 10.8348 2.61 10.1735 2.49 9.82744C2.4225 9.65058 2.13 9.10461 1.875 8.9585C1.665 8.84316 1.365 8.55864 1.8675 8.55095C2.34 8.54326 2.6775 8.99695 2.79 9.18151C3.33 10.112 4.1925 9.85051 4.5375 9.68903C4.59 9.28916 4.7475 9.02002 4.92 8.86623C3.585 8.71243 2.19 8.18184 2.19 5.8288C2.19 5.15979 2.4225 4.60613 2.805 4.17551C2.745 4.02172 2.535 3.39116 2.865 2.54529C2.865 2.54529 3.3675 2.38381 4.515 3.17585C4.995 3.03743 5.505 2.96823 6.015 2.96823C6.525 2.96823 7.035 3.03743 7.515 3.17585C8.6625 2.37612 9.165 2.54529 9.165 2.54529C9.495 3.39116 9.285 4.02172 9.225 4.17551C9.6075 4.60613 9.84 5.1521 9.84 5.8288C9.84 8.18953 8.4375 8.71243 7.1025 8.86623C7.32 9.05847 7.5075 9.42758 7.5075 10.0043C7.5075 10.8271 7.5 11.4884 7.5 11.696C7.5 11.8575 7.6125 12.0498 7.9125 11.9882C9.10359 11.5759 10.1386 10.7911 10.8718 9.74407C11.6051 8.69708 11.9996 7.4407 12 6.15176C12 2.75291 9.315 0 6 0Z" fill="#FFFEFC"/>
</svg>
